<?xml version="1.0" standalone="no"?>
<!DOCTYPE svg PUBLIC "-//W3C//DTD SVG 20010904//EN"
 "http://www.w3.org/TR/2001/REC-SVG-20010904/DTD/svg10.dtd">
<svg version="1.0" xmlns="http://www.w3.org/2000/svg"
 width="188.000000pt" height="188.000000pt" viewBox="0 0 188.000000 188.000000"
 preserveAspectRatio="xMidYMid meet">
<metadata>
Created by potrace 1.14, written by Peter Selinger 2001-2017
</metadata>
<g transform="translate(0.000000,188.000000) scale(0.100000,-0.100000)"
fill="#000000" stroke="none">
<path d="M814 1799 c-116 -44 -146 -58 -190 -90 -29 -21 -55 -35 -59 -31 -5 4
-5 2 -2 -4 4 -6 -2 -19 -12 -28 -10 -10 -21 -14 -23 -9 -3 4 -4 3 -2 -3 1 -6
-10 -27 -25 -45 -16 -19 -31 -44 -35 -57 -4 -12 -12 -20 -17 -17 -5 3 -6 -2
-2 -11 4 -11 3 -15 -5 -10 -7 4 -10 -1 -7 -14 2 -12 -2 -23 -9 -26 -9 -3 -12
-14 -8 -27 5 -20 4 -21 -13 -7 -17 14 -17 14 -4 -7 11 -19 12 -27 1 -44 -11
-17 -11 -20 0 -13 10 6 10 4 2 -7 -6 -8 -10 -31 -8 -51 1 -21 -3 -38 -8 -38
-5 0 -7 4 -3 9 3 5 1 12 -4 15 -5 4 -8 -1 -7 -10 1 -8 8 -19 15 -24 8 -4 11
-16 6 -29 -3 -12 -2 -21 3 -21 6 0 9 -8 7 -17 -1 -10 2 -24 8 -30 5 -7 7 -13
3 -13 -3 0 -1 -12 4 -26 8 -19 7 -23 -3 -18 -8 6 -8 3 1 -9 8 -9 11 -21 8 -26
-4 -5 -1 -13 5 -17 8 -5 9 -3 4 6 -6 9 -4 11 5 5 10 -6 9 -11 -6 -23 -18 -13
-18 -14 5 -7 15 5 21 3 17 -3 -3 -5 1 -12 9 -16 9 -3 12 -12 8 -22 -4 -12 -3
-15 5 -10 7 4 12 1 12 -9 0 -9 -4 -14 -9 -11 -5 4 -4 -5 2 -19 7 -14 16 -25
20 -25 4 0 3 9 -3 19 -7 14 -7 22 0 26 6 4 9 3 8 -2 -4 -15 23 -54 34 -47 6 4
8 3 5 -3 -4 -6 0 -13 8 -17 8 -3 15 -15 15 -27 0 -17 3 -19 13 -10 11 8 18 6
31 -8 10 -11 15 -24 12 -30 -4 -5 -2 -12 3 -15 5 -4 13 -1 17 5 5 8 3 9 -6 4
-9 -6 -11 -4 -6 4 13 20 70 -33 59 -54 -4 -5 -2 -6 3 -2 5 5 10 13 10 18 1 5
2 12 3 15 2 11 31 -18 31 -30 0 -7 -4 -6 -9 2 -6 11 -10 10 -15 -4 -3 -9 -4
-19 -1 -22 3 -3 5 0 5 5 0 15 24 11 46 -7 11 -9 15 -10 10 -2 -4 7 -2 12 4 12
6 0 8 6 4 13 -5 9 -4 9 6 0 7 -6 20 -9 29 -6 13 4 14 3 1 -5 -8 -6 -17 -9 -21
-6 -4 2 -6 -3 -5 -11 1 -9 6 -14 12 -13 5 2 8 6 7 9 -1 4 7 9 17 12 22 6 28
-8 8 -17 -7 -3 -3 -3 9 0 19 4 22 2 17 -13 -5 -15 -4 -15 5 -3 13 19 33 19 49
0 11 -13 11 -12 3 7 -7 14 -18 21 -31 18 -11 -2 -22 0 -25 4 -2 5 9 7 25 6 31
-3 64 -28 52 -40 -4 -4 3 -2 16 4 13 7 26 19 29 27 7 18 20 18 20 -1 0 -8 -4
-15 -9 -15 -5 0 -6 -5 -2 -11 5 -8 9 -7 16 4 4 9 17 14 28 12 11 -2 22 0 25 6
4 5 11 9 17 9 7 0 6 -5 -1 -14 -9 -11 -9 -16 0 -22 7 -4 9 -3 5 4 -3 6 2 15
11 21 11 6 13 11 5 11 -7 0 -10 5 -6 11 4 8 0 8 -15 0 -11 -7 -21 -8 -21 -4 0
12 43 29 63 25 9 -2 15 -8 12 -13 -4 -5 -1 -9 4 -9 6 0 11 4 11 8 0 5 18 17
40 27 22 10 37 22 33 27 -3 7 -8 7 -12 0 -11 -18 -70 -42 -76 -32 -3 6 3 10
14 10 12 0 21 5 21 12 0 6 3 8 7 5 3 -4 18 3 31 15 14 13 22 18 18 11 -4 -8 1
-11 13 -10 14 1 17 5 10 13 -6 7 -4 15 5 23 11 9 17 8 29 -4 14 -14 16 -13 14
11 -1 17 4 29 13 31 13 4 13 3 0 -7 -13 -10 -13 -11 0 -7 8 2 14 13 14 25 -1
12 3 20 9 19 6 -1 11 3 12 8 1 18 30 55 42 55 6 0 15 5 19 12 4 7 3 8 -4 4 -7
-4 -12 -2 -12 3 0 6 7 11 15 11 8 0 15 5 15 11 0 5 -6 7 -12 3 -8 -5 -7 -1 2
10 8 10 23 22 35 27 19 9 19 9 -2 5 -28 -5 -29 2 -5 21 9 8 12 12 5 9 -7 -4
-9 1 -6 14 3 11 8 20 12 20 3 0 7 21 8 45 1 25 6 52 13 60 8 10 8 15 -1 21 -9
5 -7 11 7 22 16 12 16 14 2 9 -14 -5 -17 0 -14 28 1 19 -2 35 -7 35 -5 0 -4 6
2 14 9 10 8 16 -4 26 -13 11 -13 15 -3 21 11 7 11 9 0 9 -7 0 -10 5 -7 10 3 6
1 10 -4 10 -6 0 -11 9 -11 19 0 11 -5 23 -11 27 -8 4 -7 9 2 15 11 7 10 9 -4
9 -10 0 -15 5 -12 10 3 6 2 10 -4 10 -10 0 -27 39 -23 53 1 5 -2 6 -7 3 -5 -3
-16 4 -24 17 -20 30 -86 97 -96 97 -4 0 -16 8 -27 18 -31 27 -105 59 -179 78
-39 10 -207 12 -231 3z m141 -167 c11 0 29 -3 39 -7 15 -7 17 -5 11 6 -6 11
-5 11 5 2 7 -6 19 -9 26 -6 8 3 14 0 14 -7 0 -6 4 -9 9 -6 12 8 8 -27 -4 -36
-15 -12 7 -10 25 2 13 9 13 10 0 10 -13 0 -13 2 0 9 21 14 32 3 19 -21 -7 -13
-7 -18 -1 -14 6 3 12 1 15 -6 2 -7 3 -6 2 3 -1 9 4 16 13 16 20 0 61 -44 51
-54 -5 -5 1 -15 14 -22 20 -13 21 -13 8 2 -9 11 -10 17 -2 17 6 0 11 -4 11 -8
0 -5 10 -18 21 -31 12 -13 22 -34 22 -47 0 -13 2 -22 6 -20 3 3 12 -7 18 -21
9 -19 9 -24 0 -20 -8 3 -14 -4 -15 -16 -1 -17 1 -18 8 -7 7 12 11 10 18 -10
13 -34 6 -128 -10 -148 -9 -11 -10 -14 0 -8 6 4 12 3 12 -2 0 -6 -7 -13 -16
-16 -8 -3 -12 -11 -9 -17 8 -12 -33 -99 -46 -99 -4 0 -11 -9 -14 -21 -4 -11
-9 -18 -12 -15 -3 3 -15 -6 -26 -20 -11 -14 -26 -23 -34 -20 -8 3 -11 2 -8 -4
7 -11 -29 -32 -39 -23 -3 3 -6 1 -6 -5 0 -13 -76 -36 -96 -28 -7 3 -16 1 -18
-3 -6 -9 -81 -7 -124 4 -59 14 -134 60 -177 107 -47 52 -90 132 -80 148 3 6 2
10 -3 10 -5 0 -12 11 -14 25 -4 16 -1 22 6 18 6 -4 5 1 -3 10 -11 14 -11 17 0
17 10 0 11 2 2 8 -15 10 -13 54 2 48 7 -2 12 2 12 10 0 7 -4 11 -9 8 -5 -4 -8
9 -5 27 3 25 9 34 21 32 10 0 15 2 12 5 -3 3 0 12 7 21 10 14 10 14 -4 4 -13
-10 -16 -10 -16 2 0 8 4 15 9 15 4 0 8 7 8 16 0 8 5 12 10 9 6 -4 8 -11 5 -16
-3 -5 1 -6 10 -2 12 4 13 8 5 13 -7 5 -9 13 -5 20 5 9 4 11 -3 6 -7 -4 -12 -5
-12 -1 0 3 11 10 25 15 14 5 25 15 25 21 0 8 -6 7 -17 -2 -16 -13 -17 -12 -5
3 16 20 34 19 44 -2 5 -12 7 -12 7 2 1 12 7 16 19 12 14 -5 14 -4 2 4 -8 6
-17 9 -21 6 -4 -2 -11 1 -15 7 -5 9 2 10 27 6 28 -6 31 -5 15 5 -19 10 -19 11
-1 24 12 9 23 10 35 4 13 -7 22 -5 31 7 10 12 10 15 2 9 -7 -4 -13 -3 -13 2 0
6 7 13 16 16 8 3 12 2 9 -4 -3 -6 -2 -10 4 -10 6 0 9 -6 7 -12 -1 -7 -1 -10 1
-5 3 4 10 4 16 0 7 -4 6 0 -1 10 -14 17 -7 42 9 32 5 -4 9 -2 9 4 0 10 25 9
36 -2 10 -9 24 -9 23 1 -3 18 2 24 14 14 7 -6 22 -11 32 -10z m-191 -878 c3
-8 2 -12 -4 -9 -6 3 -10 10 -10 16 0 14 7 11 14 -7z m276 -14 c5 9 9 8 13 -2
3 -9 -3 -14 -18 -14 -16 0 -21 4 -17 15 4 11 7 12 10 2 3 -10 6 -10 12 -1z
m-65 -9 c7 -12 -12 -24 -25 -16 -11 7 -4 25 10 25 5 0 11 -4 15 -9z"/>
<path d="M914 1625 c1 -9 8 -21 16 -28 10 -10 11 -9 5 2 -6 11 -4 13 8 8 24
-9 21 -2 -7 16 -21 14 -24 14 -22 2z"/>
<path d="M870 1622 c0 -6 -9 -9 -20 -7 -12 2 -18 0 -15 -6 4 -5 11 -6 17 -3 8
5 9 1 5 -12 -6 -17 -6 -17 5 -3 7 9 20 14 28 12 9 -3 11 -1 5 4 -5 4 -13 12
-17 17 -5 5 -8 5 -8 -2z"/>
<path d="M973 1606 c-3 -5 -2 -6 3 -3 6 3 16 2 24 -3 9 -5 20 -4 29 3 12 10
14 9 8 -6 -4 -11 -3 -16 4 -12 5 4 8 12 6 18 -4 14 -66 17 -74 3z"/>
<path d="M734 1569 c-4 -7 -3 -9 4 -5 5 3 13 0 15 -6 4 -9 6 -10 6 -1 1 17
-16 25 -25 12z"/>
<path d="M1133 1547 c0 -12 1 -16 4 -8 5 11 7 11 14 0 4 -7 10 -11 14 -8 3 3
-3 13 -13 22 -17 15 -18 15 -19 -6z"/>
<path d="M1170 1486 c0 -2 7 -7 16 -10 8 -3 12 -2 9 4 -6 10 -25 14 -25 6z"/>
<path d="M1210 1484 c0 -13 18 -39 24 -34 2 3 -2 14 -10 24 -8 11 -14 16 -14
10z"/>
<path d="M1267 1319 c7 -7 15 -10 18 -7 3 3 -2 9 -12 12 -14 6 -15 5 -6 -5z"/>
<path d="M1270 1279 c0 -5 5 -7 10 -4 6 3 10 8 10 11 0 2 -4 4 -10 4 -5 0 -10
-5 -10 -11z"/>
<path d="M375 1180 c3 -5 8 -10 11 -10 2 0 4 5 4 10 0 6 -5 10 -11 10 -5 0 -7
-4 -4 -10z"/>
<path d="M1469 1157 c6 -8 7 -18 3 -22 -4 -5 -1 -5 6 -1 10 6 10 11 1 22 -6 8
-14 14 -16 14 -3 0 0 -6 6 -13z"/>
<path d="M399 1148 c-5 -16 -4 -46 2 -42 4 2 7 13 6 24 -1 17 -5 26 -8 18z"/>
<path d="M1430 1030 c0 -5 5 -10 11 -10 5 0 7 5 4 10 -3 6 -8 10 -11 10 -2 0
-4 -4 -4 -10z"/>
<path d="M1367 953 c-13 -16 -14 -19 0 -32 13 -12 14 -11 8 9 -4 13 -3 20 2
17 5 -4 10 0 10 8 0 19 -1 19 -20 -2z"/>
<path d="M1347 907 c-3 -8 1 -14 8 -14 7 0 11 6 8 14 -3 7 -6 13 -8 13 -2 0
-5 -6 -8 -13z"/>
<path d="M513 886 c0 -7 6 -13 14 -13 7 0 13 4 13 8 0 4 -6 9 -13 12 -8 3 -14
0 -14 -7z"/>
<path d="M1320 860 c-12 -7 -10 -9 7 -7 12 0 19 5 17 9 -6 10 -6 10 -24 -2z"/>
<path d="M590 840 c0 -5 5 -10 11 -10 5 0 7 -5 3 -12 -4 -7 -3 -8 5 -4 9 6 9
11 0 22 -14 17 -19 18 -19 4z"/>
<path d="M570 820 c0 -5 5 -10 11 -10 5 0 7 5 4 10 -3 6 -8 10 -11 10 -2 0 -4
-4 -4 -10z"/>
<path d="M653 785 c0 -8 4 -12 8 -9 4 2 10 -2 12 -8 4 -8 6 -9 6 -2 1 6 -5 17
-12 23 -10 8 -14 7 -14 -4z"/>
<path d="M726 722 c-3 -5 1 -9 9 -9 8 0 15 4 15 9 0 4 -4 8 -9 8 -6 0 -12 -4
-15 -8z"/>
<path d="M1120 726 c0 -2 7 -7 16 -10 8 -3 12 -2 9 4 -6 10 -25 14 -25 6z"/>
<path d="M1112 699 c2 -7 -7 -18 -19 -24 -13 -7 -20 -15 -15 -20 4 -4 -1 -5
-11 -2 -10 4 -16 3 -13 -2 7 -11 -43 -53 -55 -46 -5 4 -8 1 -7 -7 2 -7 -3 -12
-10 -10 -8 1 -11 -1 -8 -6 6 -11 -40 -53 -48 -45 -3 4 0 13 7 22 11 14 10 14
-6 2 -15 -12 -21 -10 -47 18 -17 17 -30 28 -30 24 0 -3 -9 2 -20 12 -11 10
-17 22 -14 27 3 4 2 7 -3 6 -13 -4 -54 22 -49 31 3 4 0 8 -7 9 -7 0 -25 3 -42
5 -16 3 -46 -2 -65 -10 -19 -8 -39 -16 -45 -17 -26 -7 -219 -89 -225 -95 -12
-13 -70 -41 -70 -34 0 4 -4 4 -8 -2 -4 -5 -33 -27 -65 -49 -31 -21 -72 -52
-90 -67 -17 -16 -35 -29 -39 -29 -5 0 -8 -7 -8 -15 0 -8 -3 -15 -7 -15 -12 0
-63 -97 -68 -127 -2 -16 -6 -38 -9 -51 -3 -12 -1 -20 3 -17 5 3 11 -2 15 -10
3 -8 1 -17 -4 -20 -4 -3 -10 1 -13 7 -3 7 -5 3 -4 -8 1 -18 4 -20 19 -11 14 9
21 8 35 -8 17 -18 17 -18 1 -6 -10 8 -18 9 -18 3 0 -14 28 -23 35 -12 4 6 12
10 18 10 7 -1 2 -9 -11 -20 -21 -17 -21 -19 -3 -17 11 0 17 5 15 9 -8 12 10
10 23 -3 7 -7 13 -7 17 -1 3 6 1 14 -5 18 -8 5 -9 3 -4 -6 6 -9 4 -11 -4 -6
-14 9 -7 19 14 22 8 1 13 -2 9 -7 -3 -5 0 -9 7 -9 8 0 8 -5 -2 -17 -12 -16
-11 -16 8 0 14 13 23 15 28 7 5 -8 11 -8 19 -1 7 6 22 9 33 7 11 -2 26 0 34 5
10 7 5 8 -15 5 -16 -3 -26 -2 -22 1 11 12 40 12 53 1 9 -7 13 -7 13 1 0 17 27
13 34 -5 5 -13 4 -14 -7 -6 -8 7 -17 8 -21 4 -4 -4 -13 -7 -19 -7 -5 0 -12 -7
-14 -15 -3 -9 -1 -11 4 -5 11 14 53 15 53 1 0 -6 4 -4 9 4 6 8 7 18 5 22 -6
10 -6 10 94 12 78 2 105 -4 82 -19 -5 -3 -10 -12 -10 -18 0 -8 3 -8 9 1 4 8
12 14 17 15 5 1 8 8 6 14 -2 7 2 13 8 13 6 0 8 -4 5 -10 -3 -5 3 -10 14 -10
10 0 21 5 23 12 3 7 7 5 11 -6 5 -11 3 -15 -5 -10 -7 4 -8 3 -4 -5 4 -6 12 -9
17 -5 5 3 7 9 4 14 -3 5 0 12 6 16 8 4 9 3 5 -4 -4 -7 -2 -12 5 -12 8 0 8 -5
-2 -17 -12 -16 -11 -16 8 0 14 13 23 15 28 7 5 -8 11 -8 19 -1 7 6 22 9 33 7
11 -2 26 0 34 5 10 7 5 8 -15 5 -16 -3 -26 -2 -22 1 11 12 40 12 53 1 9 -7 13
-7 13 1 0 17 27 13 34 -5 5 -13 4 -14 -7 -6 -8 7 -17 8 -21 4 -4 -4 -13 -7
-19 -7 -5 0 -12 -7 -14 -15 -3 -9 -1 -11 4 -5 11 14 53 15 53 1 0 -6 4 -4 9 4
6 8 7 18 5 22 -6 10 -6 10 94 12 78 2 105 -4 82 -19 -5 -3 -10 -12 -10 -18 0
-8 3 -8 9 1 4 8 12 14 17 14 5 -1 8 6 6 14 -2 8 2 14 8 14 6 0 8 -5 5 -10 -3
-6 3 -10 14 -10 10 0 21 5 23 12 3 7 7 5 11 -6 5 -11 3 -15 -5 -10 -7 4 -8 3
-4 -5 4 -6 12 -9 17 -5 5 3 7 9 4 14 -3 5 0 12 6 16 8 4 9 3 5 -4 -4 -7 -2
-12 5 -12 8 0 8 -5 -2 -17 -12 -16 -11 -16 8 0 14 13 23 15 28 7 5 -8 11 -8
19 -1 7 6 22 9 33 7 11 -2 26 0 34 5 10 7 5 8 -15 5 -16 -3 -26 -2 -22 1 11
12 40 12 53 1 8 -6 13 -7 13 -1 0 6 15 9 33 8 42 -4 41 -3 27 -20 -7 -9 -10
-18 -6 -22 3 -3 6 -1 6 5 0 7 6 11 13 10 6 -2 11 5 9 14 -2 10 2 18 8 18 6 0
8 -4 5 -10 -3 -5 3 -10 14 -10 10 0 21 5 23 12 3 7 7 5 11 -6 5 -11 3 -15 -5
-10 -7 4 -8 3 -4 -5 4 -6 12 -9 17 -5 5 3 7 9 4 14 -3 5 0 12 6 16 8 4 9 3 5
-4 -4 -7 -2 -12 5 -12 8 0 8 -5 -2 -17 -12 -16 -11 -16 8 0 14 13 23 15 28 7
5 -8 11 -8 19 -1 7 6 22 9 33 7 11 -2 26 0 34 5 10 7 5 8 -15 5 -16 -3 -26 -2
-22 1 9 9 38 13 48 7 5 -3 4 -12 -3 -20 -6 -8 -9 -17 -5 -21 3 -3 6 -2 6 4 0
15 73 10 86 -6 9 -11 12 -12 19 -1 5 8 4 11 -2 7 -6 -4 -15 4 -20 16 -10 20
-8 23 13 23 13 0 24 -4 24 -9 0 -5 -8 -6 -17 -2 -13 4 -15 3 -7 -5 6 -6 23
-13 39 -16 24 -4 27 -2 22 15 -4 15 0 19 16 15 11 -2 26 1 33 7 15 12 29 -5
18 -23 -5 -7 -3 -8 5 -4 7 5 10 14 7 21 -2 7 6 28 20 46 18 25 21 35 11 41 -9
6 -9 8 2 8 10 0 11 3 2 13 -7 9 -7 17 -1 25 6 7 7 10 4 7 -4 -2 -17 17 -29 43
-21 46 -73 105 -148 169 -20 17 -37 29 -37 26 0 -3 -15 6 -32 19 -41 31 -185
103 -258 130 -30 12 -61 25 -67 31 -7 5 -13 6 -13 3 0 -4 -10 -1 -22 6 -25 13
-39 17 -78 21 -14 2 -31 6 -38 11 -8 5 -11 3 -10 -5z m-411 -193 c5 3 8 0 7
-7 -2 -7 2 -13 9 -14 20 0 55 -45 49 -61 -3 -8 -2 -12 3 -9 5 3 12 1 16 -5 3
-5 1 -10 -6 -10 -7 0 -10 -2 -7 -5 3 -3 13 -3 22 1 15 6 15 7 0 19 -14 10 -15
13 -3 20 8 5 11 5 7 1 -6 -7 26 -46 37 -46 9 0 50 -45 52 -58 4 -15 -13 -16
-20 -2 -3 6 -4 5 -3 -2 2 -7 9 -13 17 -14 28 -1 59 -16 54 -25 -4 -5 -4 -9 -1
-9 3 0 7 4 11 10 3 5 -8 16 -25 25 -17 9 -28 21 -24 26 4 6 9 7 13 3 7 -11 32
-11 47 -2 15 10 24 0 17 -18 -3 -8 1 -14 8 -14 7 0 9 3 6 7 -8 8 12 35 22 29
4 -3 7 4 7 15 0 19 -1 18 -18 -3 -10 -13 -18 -18 -18 -11 0 17 51 55 67 49 12
-5 18 14 13 39 -1 5 2 7 6 3 4 -4 20 6 36 22 15 16 28 25 28 19 0 -5 5 -7 10
-4 6 4 8 11 5 16 -3 5 1 6 10 3 11 -5 14 -2 9 12 -5 18 -5 18 6 1 10 -15 14
-16 28 -5 15 12 16 11 3 -4 -7 -10 -17 -15 -22 -12 -5 3 -9 1 -9 -4 0 -6 7
-13 16 -16 8 -3 12 -2 9 4 -5 9 1 12 21 9 4 0 11 5 16 13 8 10 9 10 5 -2 -2
-8 -10 -14 -16 -12 -7 1 -10 -2 -7 -7 3 -5 15 -7 26 -4 11 3 17 10 14 15 -4 6
5 3 18 -6 14 -9 27 -14 30 -11 3 3 11 -1 18 -10 21 -25 3 -29 -26 -6 -20 16
-30 18 -40 10 -8 -6 -14 -16 -14 -22 0 -6 6 -3 13 7 12 16 14 16 35 -2 12 -10
19 -21 17 -24 -3 -2 5 -4 18 -3 15 1 21 8 19 21 -2 16 -1 17 7 4 6 -8 11 -11
11 -7 0 5 5 5 11 1 8 -5 4 -13 -12 -26 -13 -11 -18 -17 -10 -13 7 4 18 1 23
-6 8 -11 9 -11 5 2 -4 12 2 18 18 22 14 2 22 0 19 -4 -3 -5 0 -10 5 -10 6 -1
17 -2 24 -3 6 -1 11 -8 9 -14 -1 -7 4 -12 11 -10 21 5 87 -35 87 -52 -1 -12
-2 -12 -11 2 -5 10 -16 15 -25 11 -9 -3 -14 0 -12 8 2 9 -4 13 -16 11 -12 -2
-16 1 -10 9 5 8 3 10 -6 4 -10 -6 -9 -11 6 -22 10 -8 18 -19 17 -24 -4 -13 11
-11 26 4 12 10 13 8 7 -8 -4 -11 -4 -16 0 -12 4 4 14 1 22 -6 11 -8 14 -8 9 0
-12 20 8 23 21 3 9 -14 9 -21 0 -26 -7 -4 -8 -3 -4 4 10 16 -7 15 -23 0 -11
-10 -13 -10 -7 0 4 6 2 12 -3 12 -6 0 -11 -4 -11 -10 0 -5 -5 -10 -11 -10 -5
0 -7 5 -3 12 5 8 3 8 -7 2 -22 -14 -440 -14 -432 0 5 8 3 8 -8 0 -19 -15 -79
-16 -79 -1 0 7 -4 6 -10 -3 -7 -11 -10 -11 -10 -2 0 8 -5 10 -12 5 -7 -4 -30
-8 -51 -9 -33 -1 -36 1 -25 15 8 9 3 8 -10 -4 -20 -16 -25 -17 -32 -5 -7 10
-10 11 -10 3 0 -7 -5 -13 -11 -13 -5 0 -7 5 -3 12 5 8 3 8 -7 2 -20 -13 -150
-14 -142 -1 4 6 1 7 -8 1 -20 -13 -120 -14 -112 -1 4 6 1 7 -8 1 -22 -14 -90
-14 -82 0 5 8 3 8 -8 0 -20 -15 -61 -16 -53 -1 5 8 3 8 -7 0 -15 -15 -33 -17
-24 -4 3 5 1 13 -5 16 -6 4 -9 1 -8 -6 2 -7 -9 -13 -24 -14 -15 -1 -25 2 -22
7 3 4 1 8 -5 8 -5 0 -12 -6 -15 -12 -3 -7 -3 -2 0 11 5 18 3 22 -7 16 -8 -5
-11 -5 -7 -1 3 4 8 6 10 4 2 -2 15 7 28 20 14 13 26 18 28 12 2 -5 11 -10 20
-10 14 0 15 2 3 9 -12 8 -12 12 -2 24 14 17 55 11 44 -7 -11 -17 -12 -37 -2
-30 5 3 7 9 4 14 -3 5 0 12 6 16 9 5 7 11 -6 21 -16 11 -16 13 -3 13 19 0 40
-24 30 -35 -4 -5 -1 -5 6 -1 10 6 10 11 1 22 -9 11 -8 19 6 34 10 11 21 17 25
15 4 -3 13 2 20 10 13 16 35 10 24 -6 -3 -5 -10 -6 -16 -3 -7 4 -8 2 -4 -4 4
-7 -1 -10 -14 -7 -11 2 -18 0 -15 -6 4 -5 11 -7 16 -4 5 4 9 0 9 -7 0 -7 7 -2
16 10 12 18 19 20 35 11 12 -6 23 -8 26 -6 2 3 -5 8 -16 12 -12 3 -21 13 -21
21 0 19 17 18 30 -3 10 -16 11 -16 7 4 -3 12 1 24 9 27 9 3 11 0 7 -12 -3 -9
-3 -14 2 -10 4 4 15 2 24 -5 14 -10 14 -10 3 5 -12 15 -11 17 7 15 12 -1 21
-6 21 -12 0 -5 5 -3 10 5 5 8 10 20 10 25 0 6 -5 3 -10 -5 -9 -13 -10 -13 -10
0 0 13 -1 13 -11 0 -9 -13 -10 -13 -6 0 2 8 9 16 15 16 7 1 15 3 20 4 4 1 10
2 15 1 4 0 7 5 8 12 0 9 2 9 6 -1 2 -6 9 -10 14 -6z m-436 -215 c3 -5 2 -12
-3 -15 -5 -3 -9 1 -9 9 0 17 3 19 12 6z m-47 -198 c-7 -9 -14 -10 -23 -3 -6 5
-16 6 -20 2 -5 -4 -5 -1 -1 5 4 7 18 12 31 11 18 -2 21 -5 13 -15z m480 0 c-7
-9 -14 -10 -23 -3 -6 5 -16 6 -20 2 -5 -4 -5 -1 -1 5 4 7 18 12 31 11 18 -2
21 -5 13 -15z m480 0 c-7 -9 -14 -10 -23 -3 -6 5 -16 6 -20 2 -5 -4 -5 -1 -1
5 4 7 18 12 31 11 18 -2 21 -5 13 -15z m320 0 c-7 -9 -14 -10 -23 -3 -6 5 -16
6 -20 2 -5 -4 -5 -1 -1 5 4 7 18 12 31 11 18 -2 21 -5 13 -15z m112 5 c0 -10
2 -10 9 0 7 11 9 11 13 0 4 -10 -2 -14 -22 -13 -18 0 -26 4 -23 12 7 17 23 17
23 1z m103 -1 c3 -8 -1 -14 -8 -14 -7 0 -11 6 -8 14 3 7 6 13 8 13 2 0 5 -6 8
-13z"/>
<path d="M666 488 c3 -5 8 -7 11 -4 3 3 12 -2 20 -10 8 -8 18 -12 23 -9 12 7
23 -32 14 -47 -5 -10 -4 -10 6 -1 11 10 11 18 1 39 -6 15 -15 24 -18 20 -3 -3
-13 0 -21 6 -18 15 -44 20 -36 6z"/>
<path d="M1145 470 c-4 -6 -10 -8 -14 -6 -4 3 -20 -7 -35 -23 -18 -19 -22 -28
-12 -28 8 0 13 5 9 10 -3 5 4 6 18 2 17 -4 20 -3 10 3 -7 5 -10 15 -6 21 5 9
11 7 21 -6 13 -17 14 -17 8 0 -4 11 -2 16 7 14 8 -2 11 -2 6 0 -4 3 -5 9 -1
14 3 5 3 9 0 9 -3 0 -8 -5 -11 -10z"/>
<path d="M670 460 c0 -5 5 -10 11 -10 5 0 7 5 4 10 -3 6 -8 10 -11 10 -2 0 -4
-4 -4 -10z"/>
<path d="M445 401 c-3 -6 5 -15 17 -21 21 -10 21 -10 6 3 -10 8 -15 17 -11 20
3 4 4 7 0 7 -3 0 -8 -4 -12 -9z"/>
<path d="M799 372 c-11 -14 -11 -15 1 -5 11 10 17 9 32 -4 10 -9 20 -14 23
-11 3 3 -5 12 -19 21 -22 15 -25 15 -37 -1z"/>
<path d="M1027 375 c-4 -8 -1 -17 5 -21 7 -4 8 -3 4 4 -4 7 -2 12 3 12 6 0 11
5 11 10 0 15 -17 12 -23 -5z"/>
<path d="M1414 379 c-8 -14 14 -19 25 -6 8 10 7 14 -5 14 -8 0 -17 -4 -20 -8z"/>
<path d="M365 360 c-3 -5 -1 -10 4 -10 6 0 11 5 11 10 0 6 -2 10 -4 10 -3 0
-8 -4 -11 -10z"/>
<path d="M955 329 c-4 -6 -5 -12 -2 -15 2 -3 7 2 10 11 7 17 1 20 -8 4z"/>
<path d="M311 316 c-8 -10 -7 -17 4 -26 10 -9 15 -9 15 -1 0 6 -5 11 -11 11
-5 0 -8 4 -4 10 3 5 12 7 20 3 8 -3 15 -3 15 0 0 12 -30 14 -39 3z"/>
<path d="M1838 143 c7 -3 16 -2 19 1 4 3 -2 6 -13 5 -11 0 -14 -3 -6 -6z"/>
<path d="M1820 119 c0 -5 5 -7 10 -4 6 3 10 8 10 11 0 2 -4 4 -10 4 -5 0 -10
-5 -10 -11z"/>
<path d="M1775 99 c-4 -6 -14 -8 -24 -4 -13 5 -14 4 -3 -6 10 -11 15 -10 29 4
10 9 14 17 11 17 -4 0 -10 -5 -13 -11z"/>
<path d="M377 83 c3 -8 14 -13 24 -10 10 3 20 0 23 -7 4 -10 6 -5 6 21 0 4
-13 8 -29 9 -22 1 -28 -3 -24 -13z"/>
<path d="M457 83 c6 -16 19 -17 28 -3 4 6 11 8 16 5 5 -4 9 -2 9 3 0 5 -13 9
-29 8 -19 0 -27 -5 -24 -13z"/>
<path d="M857 83 c3 -8 14 -13 24 -10 10 3 20 0 23 -7 4 -10 6 -5 6 21 0 4
-13 8 -29 9 -22 1 -28 -3 -24 -13z"/>
<path d="M937 83 c6 -16 19 -17 28 -3 4 6 11 8 16 5 5 -4 9 -2 9 3 0 5 -13 9
-29 8 -19 0 -27 -5 -24 -13z"/>
<path d="M1288 94 c-4 -3 -14 -7 -24 -8 -10 -2 -20 -9 -22 -17 -2 -8 0 -10 5
-4 8 10 28 17 51 18 6 0 12 4 12 9 0 9 -14 11 -22 2z"/>
<path d="M176 62 c-3 -5 1 -9 9 -9 8 0 12 4 9 9 -3 4 -7 8 -9 8 -2 0 -6 -4 -9
-8z"/>
<path d="M255 60 c3 -5 8 -10 11 -10 2 0 4 5 4 10 0 6 -5 10 -11 10 -5 0 -7
-4 -4 -10z"/>
<path d="M495 60 c3 -5 8 -10 11 -10 2 0 4 5 4 10 0 6 -5 10 -11 10 -5 0 -7
-4 -4 -10z"/>
<path d="M656 62 c-3 -5 1 -9 9 -9 8 0 12 4 9 9 -3 4 -7 8 -9 8 -2 0 -6 -4 -9
-8z"/>
<path d="M735 60 c3 -5 8 -10 11 -10 2 0 4 5 4 10 0 6 -5 10 -11 10 -5 0 -7
-4 -4 -10z"/>
<path d="M975 60 c3 -5 8 -10 11 -10 2 0 4 5 4 10 0 6 -5 10 -11 10 -5 0 -7
-4 -4 -10z"/>
<path d="M1136 62 c-3 -5 1 -9 9 -9 8 0 12 4 9 9 -3 4 -7 8 -9 8 -2 0 -6 -4
-9 -8z"/>
<path d="M1215 60 c3 -5 8 -10 11 -10 2 0 4 5 4 10 0 6 -5 10 -11 10 -5 0 -7
-4 -4 -10z"/>
<path d="M1295 60 c3 -5 8 -10 11 -10 2 0 4 5 4 10 0 6 -5 10 -11 10 -5 0 -7
-4 -4 -10z"/>
<path d="M1456 62 c-3 -5 1 -9 9 -9 8 0 12 4 9 9 -7 10 -11 10 -18 0z"/>
<path d="M1535 60 c3 -5 8 -10 11 -10 2 0 4 5 4 10 0 6 -5 10 -11 10 -5 0 -7
-4 -4 -10z"/>
</g>
</svg>
